<?xml version="1.0" encoding="UTF-8" standalone="no"?>
<svg
   xmlns:dc="http://purl.org/dc/elements/1.1/"
   xmlns:cc="http://creativecommons.org/ns#"
   xmlns:rdf="http://www.w3.org/1999/02/22-rdf-syntax-ns#"
   xmlns:svg="http://www.w3.org/2000/svg"
   xmlns="http://www.w3.org/2000/svg"
   xmlns:sodipodi="http://sodipodi.sourceforge.net/DTD/sodipodi-0.dtd"
   xmlns:inkscape="http://www.inkscape.org/namespaces/inkscape"
   xml:space="preserve"
   version="1.1"
   overflow="visible"
   viewBox="0 0 264.60001 40.319999"
   id="svg66"
   sodipodi:docname="logo-w3c.svg"
   width="264.60001"
   height="40.32"
   style="overflow:visible"
   inkscape:version="0.92.5 (2060ec1f9f, 2020-04-08)"><metadata
   id="metadata72"><rdf:RDF><cc:Work
       rdf:about=""><dc:format>image/svg+xml</dc:format><dc:type
         rdf:resource="http://purl.org/dc/dcmitype/StillImage" /><dc:title></dc:title></cc:Work></rdf:RDF></metadata><defs
   id="defs70" /><sodipodi:namedview
   pagecolor="#ffffff"
   bordercolor="#666666"
   borderopacity="1"
   objecttolerance="10"
   gridtolerance="10"
   guidetolerance="10"
   inkscape:pageopacity="0"
   inkscape:pageshadow="2"
   inkscape:window-width="1571"
   inkscape:window-height="777"
   id="namedview68"
   showgrid="false"
   fit-margin-top="0"
   fit-margin-left="0"
   fit-margin-right="0"
   fit-margin-bottom="0"
   inkscape:zoom="1.3365079"
   inkscape:cx="-99.647752"
   inkscape:cy="23.901089"
   inkscape:window-x="0"
   inkscape:window-y="0"
   inkscape:window-maximized="0"
   inkscape:current-layer="g62" />
  <g
   id="g64"
   style="image-rendering:optimizeQuality;shape-rendering:geometricPrecision;text-rendering:geometricPrecision"
   transform="translate(-37.171499,-7.5810879)">
    <g
   id="g62"
   style="image-rendering:optimizeQuality;shape-rendering:geometricPrecision;text-rendering:geometricPrecision">
      <g
   id="Background">
      </g>
      <g
   id="Guides">
      </g>
      
      <g
   id="g909"
   transform="matrix(0.84,0,0,0.84,37.171499,7.5810879)"
   style="stroke-width:1.19047618"><g
     id="Foreground"
     style="stroke-width:1.19047618">
        <rect
   style="clip-rule:evenodd;fill:#ffffff;fill-rule:evenodd;stroke-width:1.19047618"
   y="0"
   x="0"
   id="rect4"
   height="48"
   width="315" />
        <path
   style="fill:#005a9c;stroke-width:1.19047618"
   inkscape:connector-curvature="0"
   id="path6"
   d="m 28.022,0.339 8.532,29.009 8.532,-29.009 h 0.185 5.993 16.955 v 2.883 l -8.708,15.004 c 3.06,0.982 5.374,2.767 6.943,5.356 1.568,2.589 2.354,5.628 2.354,9.119 0,4.316 -1.147,7.945 -3.442,10.886 C 63.07,46.529 60.099,48 56.451,48 c -2.746,0 -5.139,-0.873 -7.179,-2.618 -2.04,-1.745 -3.55,-4.108 -4.531,-7.09 l 4.825,-2 c 0.707,1.805 1.639,3.227 2.796,4.266 1.157,1.04 2.52,1.559 4.089,1.559 1.647,0 3.041,-0.921 4.178,-2.765 1.138,-1.843 1.707,-4.06 1.707,-6.65 0,-2.864 -0.608,-5.08 -1.824,-6.648 -1.414,-1.844 -3.63,-2.766 -6.65,-2.766 H 51.509 V 20.464 L 59.747,6.224 H 49.802 L 49.236,7.187 37.143,48 H 36.555 L 27.729,18.462 18.902,48 H 18.314 L 4.192,0.339 H 10.37 L 18.902,29.348 24.668,9.813 21.844,0.339 Z" />
        <path
   style="clip-rule:evenodd;fill-rule:evenodd;stroke-width:1.19047618"
   inkscape:connector-curvature="0"
   id="path8"
   d="m 99.054,0 c -0.819,0 -1.553,0.295 -2.11,0.861 -0.591,0.599 -0.92,1.376 -0.92,2.178 0,0.802 0.313,1.545 0.887,2.127 0.583,0.591 1.334,0.912 2.144,0.912 0.794,0 1.562,-0.321 2.162,-0.903 0.574,-0.557 0.886,-1.3 0.886,-2.136 0,-0.811 -0.321,-1.57 -0.878,-2.136 C 100.642,0.313 99.882,0 99.054,0 Z m 2.643,3.065 c 0,0.701 -0.27,1.351 -0.768,1.832 -0.523,0.506 -1.173,0.776 -1.891,0.776 -0.675,0 -1.342,-0.278 -1.841,-0.785 C 96.699,4.382 96.42,3.732 96.42,3.04 c 0,-0.692 0.287,-1.368 0.802,-1.891 0.481,-0.49 1.131,-0.751 1.84,-0.751 0.726,0 1.376,0.27 1.883,0.785 0.491,0.489 0.752,1.147 0.752,1.882 z M 99.139,1.258 h -1.3 v 3.444 h 0.65 V 3.234 h 0.642 l 0.701,1.469 h 0.726 L 99.79,3.133 c 0.498,-0.101 0.785,-0.439 0.785,-0.929 -0.001,-0.625 -0.474,-0.946 -1.436,-0.946 z M 99.021,1.68 c 0.608,0 0.887,0.169 0.887,0.591 0,0.405 -0.279,0.549 -0.87,0.549 H 98.489 V 1.68 Z" />
      </g><g
     id="Calque_1"
     style="stroke-width:1.19047618">
        <rect
   style="clip-rule:evenodd;fill:#005a9c;fill-rule:evenodd;stroke-width:1.19047618"
   id="rect11"
   x="104.421"
   y="27.316"
   width="206.38699"
   height="17.35" />
        <path
   style="fill:#ffffff;stroke-width:1.19047618"
   inkscape:connector-curvature="0"
   id="path13"
   d="m 116.264,38.784 c -0.758,1.078 -1.617,2.29 -3.401,2.29 -1.111,0 -2.509,-0.724 -2.509,-2.593 0,-2.576 2.425,-5.405 4.749,-5.405 1.331,0 1.937,0.741 1.937,1.482 0,0.758 -0.421,1.212 -1.061,1.212 -0.455,0 -0.96,-0.303 -0.96,-0.876 0,-0.471 0.354,-0.741 0.354,-0.977 0,-0.219 -0.236,-0.286 -0.387,-0.286 -1.465,0 -2.476,3.536 -2.476,4.732 0,1.347 0.741,1.633 1.229,1.633 0.758,0 1.381,-0.539 2.054,-1.516 z" />
        <path
   style="fill:#ffffff;stroke-width:1.19047618"
   inkscape:connector-curvature="0"
   id="path15"
   d="m 137.978,35.668 c 0,2.509 -2.088,5.405 -4.782,5.405 -1.381,0 -2.694,-0.893 -2.694,-2.509 0,-2.593 2.172,-5.489 4.833,-5.489 0.639,0 2.643,0.337 2.643,2.593 z m -5.473,3.739 c 0,0.336 0,1.179 0.875,1.179 1.617,0 2.593,-4.681 2.593,-5.944 0,-0.842 -0.37,-1.078 -0.808,-1.078 -1.818,-10e-4 -2.66,4.765 -2.66,5.843 z" />
        <path
   style="fill:#ffffff;stroke-width:1.19047618"
   inkscape:connector-curvature="0"
   id="path17"
   d="m 159.913,38.8 c -0.539,0.909 -1.33,2.206 -2.644,2.206 -0.27,0 -1.179,0 -1.179,-1.095 0,-1.195 1.482,-4.883 1.482,-5.253 0,-0.202 -0.202,-0.371 -0.421,-0.371 -0.421,0 -2.122,0.842 -3.604,6.567 h -2.038 c 0.859,-3.216 1.717,-5.995 1.717,-6.416 C 153.226,34 152.771,34 152.317,34 v -0.455 c 0.371,0 2.038,-0.152 3.368,-0.455 l -1.01,3.132 0.051,0.034 c 1.212,-1.785 2.122,-3.183 3.586,-3.183 0.404,0 1.28,0.034 1.28,1.331 0,1.094 -1.465,4.664 -1.465,5.152 0,0.151 0.067,0.303 0.252,0.303 0.336,0 0.724,-0.606 1.162,-1.28 z" />
        <path
   style="fill:#ffffff;stroke-width:1.19047618"
   inkscape:connector-curvature="0"
   id="path19"
   d="m 178.833,35.668 -0.455,-0.034 c -0.135,-0.842 -0.488,-2.004 -1.482,-2.004 -0.893,0 -0.893,0.825 -0.893,0.909 0,1.061 2.307,2.543 2.307,4.277 0,1.633 -1.448,2.256 -2.526,2.256 -0.741,0 -1.162,-0.337 -1.549,-0.337 -0.067,0 -0.404,0.051 -0.489,0.337 h -0.455 l 0.371,-2.795 0.455,0.051 c 0.252,2.239 1.465,2.239 1.617,2.239 0.64,0 0.959,-0.505 0.959,-0.926 0,-0.438 -0.404,-1.111 -0.943,-1.735 -0.875,-1.01 -1.347,-1.701 -1.347,-2.728 0,-1.499 1.162,-2.105 2.256,-2.105 0.842,0 1.044,0.371 1.6,0.371 0.252,0 0.303,-0.067 0.471,-0.354 h 0.488 z" />
        <path
   style="fill:#ffffff;stroke-width:1.19047618"
   inkscape:connector-curvature="0"
   id="path21"
   d="m 200.228,35.668 c 0,2.509 -2.088,5.405 -4.782,5.405 -1.381,0 -2.694,-0.893 -2.694,-2.509 0,-2.593 2.172,-5.489 4.833,-5.489 0.639,0 2.643,0.337 2.643,2.593 z m -5.473,3.739 c 0,0.336 0,1.179 0.875,1.179 1.617,0 2.593,-4.681 2.593,-5.944 0,-0.842 -0.371,-1.078 -0.809,-1.078 -1.817,-10e-4 -2.659,4.765 -2.659,5.843 z" />
        <path
   style="fill:#ffffff;stroke-width:1.19047618"
   inkscape:connector-curvature="0"
   id="path23"
   d="m 214.316,33.547 c 1.718,-0.152 2.24,-0.186 3.368,-0.472 l -0.943,2.998 0.084,0.034 c 0.505,-1.011 1.499,-3.031 2.61,-3.031 0.067,0 0.977,0 0.977,1.111 0,0.774 -0.471,1.229 -0.993,1.229 -0.589,0 -0.775,-0.64 -1.011,-0.64 -0.471,0 -1.347,1.684 -1.717,2.576 -0.438,1.128 -0.606,1.937 -1.145,3.503 h -2.038 c 0.893,-3.031 1.718,-5.86 1.718,-6.399 0,-0.421 -0.303,-0.438 -0.91,-0.455 z" />
        <path
   style="fill:#ffffff;stroke-width:1.19047618"
   inkscape:connector-curvature="0"
   id="path25"
   d="m 237.782,34.001 h -1.398 c -0.556,2.054 -1.465,5.001 -1.465,5.573 0,0.202 0.236,0.253 0.252,0.253 0.421,0 1.078,-0.994 1.297,-1.347 l 0.37,0.236 c -0.623,0.977 -1.448,2.29 -2.761,2.29 -1.212,0 -1.212,-1.01 -1.212,-1.128 0,-0.69 0.808,-3.216 1.549,-5.876 h -0.858 v -0.589 c 0.657,-0.252 1.936,-0.775 3.082,-2.56 h 0.589 l -0.656,2.441 h 1.212 v 0.707 z" />
        <path
   style="fill:#ffffff;stroke-width:1.19047618"
   inkscape:connector-curvature="0"
   id="path27"
   d="m 254.375,38.716 c -0.859,1.313 -1.566,2.29 -2.812,2.29 -0.977,0 -1.162,-0.724 -1.162,-1.128 0,-0.741 1.313,-4.951 1.313,-5.338 0,-0.539 -0.505,-0.556 -0.994,-0.539 v -0.455 c 0.674,-0.051 2.256,-0.202 3.402,-0.472 -0.657,2.408 -1.684,5.961 -1.684,6.5 0,0.168 0.151,0.253 0.252,0.253 0.404,0 0.977,-0.842 1.313,-1.347 z m -0.741,-9.379 c 0.64,0 1.162,0.522 1.162,1.145 0,0.606 -0.505,1.111 -1.162,1.111 -0.791,0 -1.111,-0.707 -1.111,-1.145 -0.001,-0.404 0.353,-1.111 1.111,-1.111 z" />
        <path
   style="fill:#ffffff;stroke-width:1.19047618"
   inkscape:connector-curvature="0"
   id="path29"
   d="m 275.969,38.834 c -0.32,0.573 -1.263,2.172 -2.677,2.172 -0.253,0 -1.128,0 -1.128,-0.943 0,-0.724 0.202,-1.297 0.371,-1.802 l -0.034,-0.017 c -1.28,1.785 -1.987,2.762 -3.267,2.762 -1.297,0 -1.297,-0.926 -1.297,-1.313 0,-1.162 1.263,-4.227 1.263,-5.203 0,-0.438 -0.371,-0.455 -0.943,-0.488 v -0.455 c 1.499,-0.067 3.283,-0.455 3.519,-0.472 l -1.583,5.187 c -0.202,0.64 -0.253,0.825 -0.253,1.128 0,0.32 0.168,0.404 0.387,0.404 0.674,0 1.701,-1.6 1.92,-2.004 0.758,-1.364 1.145,-2.694 1.667,-4.496 h 1.987 c -0.336,1.179 -1.734,5.708 -1.734,6.248 0,0.286 0.168,0.32 0.252,0.32 0.404,0 1.044,-1.01 1.196,-1.246 z" />
        <path
   style="fill:#ffffff;stroke-width:1.19047618"
   inkscape:connector-curvature="0"
   id="path31"
   d="m 290.258,33.547 c 1.785,-0.152 2.206,-0.186 3.368,-0.455 l -1.011,3.132 0.051,0.034 c 0.977,-1.499 2.071,-3.183 3.57,-3.183 0.084,0 1.111,0 1.111,1.128 0,0.656 -0.236,1.229 -0.387,1.616 l 0.017,0.034 c 0.859,-1.364 1.853,-2.778 3.233,-2.778 0.926,0 1.33,0.589 1.33,1.331 0,1.111 -1.499,4.546 -1.499,5.203 0,0.202 0.186,0.252 0.287,0.252 0.32,0 0.859,-0.842 1.145,-1.28 l 0.37,0.219 c -0.521,0.893 -1.296,2.206 -2.644,2.206 -0.286,0 -1.179,0 -1.179,-1.095 0,-1.229 1.482,-4.816 1.482,-5.22 0,-0.202 -0.135,-0.388 -0.404,-0.388 -0.708,0 -1.6,1.465 -1.87,1.954 -0.623,1.078 -0.858,1.835 -1.701,4.597 h -2.021 c 1.297,-4.193 1.853,-5.675 1.853,-6.146 0,-0.32 -0.202,-0.404 -0.32,-0.404 -0.118,0 -1.987,0.421 -3.553,6.551 h -2.038 c 0.96,-3.52 1.718,-5.86 1.718,-6.416 0,-0.488 -0.657,-0.455 -0.91,-0.438 v -0.454 z" />
        <path
   inkscape:connector-curvature="0"
   id="path33"
   d="m 124.153,9.354 h 2.542 l -5.777,19.497 h -0.26 l -3.611,-12.074 -3.61,12.074 h -0.231 L 107.429,9.354 h 2.542 l 3.466,11.872 2.368,-8.001 -1.155,-3.87 h 2.542 l 3.466,11.872 z"
   style="stroke-width:1.19047618" />
        <path
   inkscape:connector-curvature="0"
   id="path35"
   d="m 208.393,8.953 h 2.542 l -5.777,19.497 h -0.26 l -3.611,-12.074 -3.61,12.074 h -0.231 L 191.669,8.953 h 2.542 l 3.466,11.872 2.368,-8.001 -1.155,-3.871 h 2.542 l 3.466,11.872 z"
   style="stroke-width:1.19047618" />
        <path
   inkscape:connector-curvature="0"
   id="path37"
   d="m 277.791,8.953 h 2.542 l -5.777,19.497 h -0.26 l -3.61,-12.074 -3.611,12.074 h -0.231 L 261.067,8.953 h 2.542 l 3.466,11.872 2.369,-8.001 -1.156,-3.871 h 2.542 l 3.466,11.872 z"
   style="stroke-width:1.19047618" />
        <path
   inkscape:connector-curvature="0"
   id="path39"
   d="m 282.077,11.208 h 7.703 v 2.557 h -5.115 v 3.082 h 5.115 v 2.588 h -5.115 v 4.622 h 5.115 v 2.558 h -7.703 z"
   style="stroke-width:1.19047618" />
        <path
   inkscape:connector-curvature="0"
   id="path41"
   d="m 294.139,11.208 h 5.392 c 2.28,0 4.129,1.849 4.129,4.098 0,1.047 -0.339,1.849 -0.894,2.557 1.17,0.894 1.91,2.188 1.91,3.882 0,2.681 -2.188,4.869 -4.868,4.869 -0.278,0 -5.669,0 -5.669,0 z m 2.588,5.639 h 2.804 c 0.863,0 1.541,-0.678 1.541,-1.541 0,-0.832 -0.678,-1.541 -1.541,-1.541 -0.215,0 -2.804,0 -2.804,0 z m 0,7.21 h 3.082 c 1.263,0 2.311,-1.047 2.311,-2.311 0,-1.294 -1.048,-2.311 -2.311,-2.311 -0.493,0 -3.082,0 -3.082,0 z"
   style="stroke-width:1.19047618" />
        <path
   inkscape:connector-curvature="0"
   id="path43"
   d="m 132.783,10.961 c 3.482,0 5.392,3.574 5.392,7.95 0,4.376 -1.91,7.95 -5.392,7.95 -3.451,0 -5.392,-3.574 -5.392,-7.95 0,-4.376 1.941,-7.95 5.392,-7.95 z m 0,13.342 c 1.479,0 2.681,-2.434 2.681,-5.392 0,-2.958 -1.202,-5.393 -2.681,-5.393 -1.448,0 -2.681,2.435 -2.681,5.393 0,2.958 1.232,5.392 2.681,5.392 z"
   style="stroke-width:1.19047618" />
        <path
   inkscape:connector-curvature="0"
   id="path45"
   d="m 153.58,26.614 h -3.143 l -3.697,-5.146 c -0.617,0 -1.88,0 -1.88,0 v 5.146 h -2.588 V 11.208 h 4.899 c 2.804,0 5.115,2.311 5.115,5.146 0,1.972 -1.109,3.698 -2.773,4.561 z m -3.851,-10.26 c 0,-1.417 -1.14,-2.588 -2.558,-2.588 -0.277,0 -2.311,0 -2.311,0 v 5.146 h 2.311 c 1.417,-10e-4 2.558,-1.172 2.558,-2.558 z"
   style="stroke-width:1.19047618" />
        <path
   inkscape:connector-curvature="0"
   id="path47"
   d="m 159.495,24.057 h 5.115 v 2.558 h -7.703 V 11.208 h 2.588 z"
   style="stroke-width:1.19047618" />
        <path
   inkscape:connector-curvature="0"
   id="path49"
   d="m 166.403,11.208 h 3.605 c 3.821,0 6.933,3.451 6.933,7.703 0,4.252 -3.112,7.703 -6.933,7.703 -0.339,0 -3.605,0 -3.605,0 z m 2.588,12.849 h 1.017 c 2.25,0 4.098,-2.311 4.098,-5.146 0,-2.835 -1.849,-5.146 -4.098,-5.146 -0.401,0 -1.017,0 -1.017,0 z"
   style="stroke-width:1.19047618" />
        <path
   inkscape:connector-curvature="0"
   id="path51"
   d="m 221.504,11.208 h 3.605 c 3.821,0 6.933,3.451 6.933,7.703 0,4.252 -3.112,7.703 -6.933,7.703 -0.339,0 -3.605,0 -3.605,0 z m 2.588,12.849 h 1.017 c 2.25,0 4.098,-2.311 4.098,-5.146 0,-2.835 -1.849,-5.146 -4.098,-5.146 -0.401,0 -1.017,0 -1.017,0 z"
   style="stroke-width:1.19047618" />
        <path
   inkscape:connector-curvature="0"
   id="path53"
   d="m 236.139,11.208 h 7.703 v 2.557 h -5.115 v 3.082 h 5.115 v 2.588 h -5.115 v 4.622 h 5.115 v 2.558 h -7.703 z"
   style="stroke-width:1.19047618" />
        <rect
   style="clip-rule:evenodd;fill-rule:evenodd;stroke-width:1.19047618"
   id="rect55"
   x="214.158"
   y="11.145"
   width="2.256"
   height="15.419" />
        <path
   inkscape:connector-curvature="0"
   id="path57"
   d="m 92.752,0.07 1.001,6.084 -3.543,6.778 c 0,0 -1.36,-2.876 -3.62,-4.468 -1.904,-1.341 -3.144,-1.632 -5.083,-1.232 -2.49,0.513 -5.314,3.492 -6.547,7.163 -1.475,4.393 -1.489,6.519 -1.54,8.472 -0.083,3.131 0.411,4.981 0.411,4.981 0,0 -2.15,-3.979 -2.131,-9.808 0.014,-4.159 0.667,-7.933 2.593,-11.655 1.693,-3.274 4.21,-5.238 6.444,-5.469 2.31,-0.239 4.135,0.875 5.545,2.08 1.48,1.265 2.978,4.031 2.978,4.031 z"
   style="stroke-width:1.19047618" />
        <path
   inkscape:connector-curvature="0"
   id="path59"
   d="m 93.189,34.499 c 0,0 -1.566,2.798 -2.542,3.876 -0.976,1.079 -2.721,2.978 -4.878,3.928 -2.156,0.95 -3.286,1.129 -5.417,0.924 -2.128,-0.206 -4.107,-1.438 -4.801,-1.951 -0.693,-0.514 -2.465,-2.028 -3.466,-3.44 -1.001,-1.412 -2.567,-4.236 -2.567,-4.236 0,0 0.873,2.83 1.418,4.031 0.314,0.691 1.28,2.806 2.651,4.646 1.278,1.717 3.761,4.672 7.535,5.34 3.774,0.667 6.367,-1.027 7.009,-1.438 0.642,-0.411 1.994,-1.542 2.85,-2.458 0.894,-0.956 1.739,-2.176 2.208,-2.908 0.342,-0.534 0.898,-1.617 0.898,-1.617 z"
   style="stroke-width:1.19047618" />
      </g></g>
    </g>
  </g>
</svg>